<mxfile host="app.diagrams.net" modified="2022-08-22T03:10:34.638Z" agent="5.0 (X11; Linux x86_64) AppleWebKit/537.36 (KHTML, like Gecko) Chrome/97.0.4692.99 Safari/537.36" etag="Yyvgxd2xSp8Bp18_bY1o" version="20.2.5" type="github" pages="3">
  <diagram id="K23JotS_1GK_EORmbzha" name="workspace">
    <mxGraphModel dx="1374" dy="782" grid="1" gridSize="10" guides="1" tooltips="1" connect="1" arrows="1" fold="1" page="1" pageScale="1" pageWidth="850" pageHeight="1100" math="0" shadow="0">
      <root>
        <mxCell id="0" />
        <mxCell id="1" parent="0" />
        <mxCell id="WsdORt_Kv3Rok1wxWnkN-1" value="User" style="shape=umlActor;verticalLabelPosition=bottom;verticalAlign=top;html=1;outlineConnect=0;" parent="1" vertex="1">
          <mxGeometry x="70" y="726.5" width="30" height="60" as="geometry" />
        </mxCell>
        <mxCell id="UKq5JbzF4ZAJY5MndnNC-1" style="edgeStyle=none;rounded=0;orthogonalLoop=1;jettySize=auto;html=1;endArrow=none;endFill=0;" parent="1" source="WsdORt_Kv3Rok1wxWnkN-1" target="UKq5JbzF4ZAJY5MndnNC-2" edge="1">
          <mxGeometry relative="1" as="geometry">
            <mxPoint x="210" y="240.1643200451653" as="sourcePoint" />
          </mxGeometry>
        </mxCell>
        <mxCell id="UKq5JbzF4ZAJY5MndnNC-2" value="View workspace" style="ellipse;whiteSpace=wrap;html=1;" parent="1" vertex="1">
          <mxGeometry x="300" y="559.9950000000001" width="140" height="70" as="geometry" />
        </mxCell>
        <mxCell id="Rt1y0CCdEo1dKdQ2rK9R-10" style="edgeStyle=none;rounded=0;orthogonalLoop=1;jettySize=auto;html=1;endArrow=none;endFill=0;" parent="1" source="WsdORt_Kv3Rok1wxWnkN-1" target="Rt1y0CCdEo1dKdQ2rK9R-11" edge="1">
          <mxGeometry relative="1" as="geometry">
            <mxPoint x="110" y="305.2640455225628" as="sourcePoint" />
            <mxPoint x="250" y="420" as="targetPoint" />
          </mxGeometry>
        </mxCell>
        <mxCell id="Rt1y0CCdEo1dKdQ2rK9R-11" value="Create workspace" style="ellipse;whiteSpace=wrap;html=1;" parent="1" vertex="1">
          <mxGeometry x="300" y="686.075" width="140" height="70" as="geometry" />
        </mxCell>
        <mxCell id="EGeAvXbNkfwo1n6aEgyM-3" style="edgeStyle=none;rounded=0;orthogonalLoop=1;jettySize=auto;html=1;endArrow=none;endFill=0;" parent="1" source="WsdORt_Kv3Rok1wxWnkN-1" target="EGeAvXbNkfwo1n6aEgyM-4" edge="1">
          <mxGeometry relative="1" as="geometry">
            <mxPoint x="110" y="316.4414694663499" as="sourcePoint" />
            <mxPoint x="170" y="420" as="targetPoint" />
          </mxGeometry>
        </mxCell>
        <mxCell id="EGeAvXbNkfwo1n6aEgyM-4" value="Delete workspace" style="ellipse;whiteSpace=wrap;html=1;" parent="1" vertex="1">
          <mxGeometry x="300" y="940.005" width="140" height="70" as="geometry" />
        </mxCell>
        <mxCell id="3KHiUVuHi_kntfS3IhM0-12" style="edgeStyle=none;rounded=0;orthogonalLoop=1;jettySize=auto;html=1;endArrow=none;endFill=0;" parent="1" source="WsdORt_Kv3Rok1wxWnkN-1" target="3KHiUVuHi_kntfS3IhM0-13" edge="1">
          <mxGeometry relative="1" as="geometry">
            <mxPoint x="110" y="774.0050459636047" as="sourcePoint" />
            <mxPoint x="310" y="950" as="targetPoint" />
          </mxGeometry>
        </mxCell>
        <mxCell id="3KHiUVuHi_kntfS3IhM0-13" value="Rename workspace" style="ellipse;whiteSpace=wrap;html=1;" parent="1" vertex="1">
          <mxGeometry x="300" y="809.995" width="140" height="70" as="geometry" />
        </mxCell>
        <mxCell id="RtiZ7IGVuJ7F500GFpzI-2" value="workspace name must be unique and not empty" style="ellipse;whiteSpace=wrap;html=1;" parent="1" vertex="1">
          <mxGeometry x="550" y="726.5" width="180" height="80" as="geometry" />
        </mxCell>
        <mxCell id="RtiZ7IGVuJ7F500GFpzI-5" value="Extends" style="endArrow=open;endSize=12;dashed=1;html=1;rounded=0;" parent="1" source="RtiZ7IGVuJ7F500GFpzI-2" target="3KHiUVuHi_kntfS3IhM0-13" edge="1">
          <mxGeometry width="160" relative="1" as="geometry">
            <mxPoint x="612.530422886731" y="668.5060845773462" as="sourcePoint" />
            <mxPoint x="444.9933683619681" y="634.0736736723934" as="targetPoint" />
          </mxGeometry>
        </mxCell>
        <mxCell id="zfCbt0IlBXV4uPOWnLnJ-4" value="Extends" style="endArrow=open;endSize=12;dashed=1;html=1;rounded=0;" parent="1" source="RtiZ7IGVuJ7F500GFpzI-2" target="Rt1y0CCdEo1dKdQ2rK9R-11" edge="1">
          <mxGeometry width="160" relative="1" as="geometry">
            <mxPoint x="595.1896625729032" y="765.825146124434" as="sourcePoint" />
            <mxPoint x="469.99971017972524" y="786.4968473373117" as="targetPoint" />
          </mxGeometry>
        </mxCell>
        <mxCell id="zfCbt0IlBXV4uPOWnLnJ-5" value="Deletion confirmation" style="ellipse;whiteSpace=wrap;html=1;" parent="1" vertex="1">
          <mxGeometry x="580" y="929.9999999999999" width="120" height="80" as="geometry" />
        </mxCell>
        <mxCell id="y_kr0vfb0ndOp53O3oiT-1" value="Includes" style="endArrow=open;endSize=12;dashed=1;html=1;rounded=0;" parent="1" source="EGeAvXbNkfwo1n6aEgyM-4" target="zfCbt0IlBXV4uPOWnLnJ-5" edge="1">
          <mxGeometry width="160" relative="1" as="geometry">
            <mxPoint x="438.0355163673546" y="653.7664024778362" as="sourcePoint" />
            <mxPoint x="580" y="900" as="targetPoint" />
          </mxGeometry>
        </mxCell>
      </root>
    </mxGraphModel>
  </diagram>
  <diagram id="5b64bDbIv4b0W_o7QEYt" name="space">
    <mxGraphModel dx="1374" dy="782" grid="1" gridSize="10" guides="1" tooltips="1" connect="1" arrows="1" fold="1" page="1" pageScale="1" pageWidth="850" pageHeight="1100" math="0" shadow="0">
      <root>
        <mxCell id="0" />
        <mxCell id="1" parent="0" />
        <mxCell id="YKDy_OSkBFgjNlzkAKXw-1" value="User" style="shape=umlActor;verticalLabelPosition=bottom;verticalAlign=top;html=1;outlineConnect=0;" parent="1" vertex="1">
          <mxGeometry x="70" y="580" width="30" height="60" as="geometry" />
        </mxCell>
        <mxCell id="YKDy_OSkBFgjNlzkAKXw-2" style="edgeStyle=none;rounded=0;orthogonalLoop=1;jettySize=auto;html=1;endArrow=none;endFill=0;" parent="1" source="YKDy_OSkBFgjNlzkAKXw-1" target="YKDy_OSkBFgjNlzkAKXw-3" edge="1">
          <mxGeometry relative="1" as="geometry">
            <mxPoint x="110" y="377.50528270777613" as="sourcePoint" />
            <mxPoint x="220" y="590" as="targetPoint" />
          </mxGeometry>
        </mxCell>
        <mxCell id="YKDy_OSkBFgjNlzkAKXw-3" value="Add space to workspace" style="ellipse;whiteSpace=wrap;html=1;" parent="1" vertex="1">
          <mxGeometry x="310" y="540" width="140" height="70" as="geometry" />
        </mxCell>
        <mxCell id="YKDy_OSkBFgjNlzkAKXw-4" value="Move space" style="ellipse;whiteSpace=wrap;html=1;" parent="1" vertex="1">
          <mxGeometry x="310" y="760" width="140" height="70" as="geometry" />
        </mxCell>
        <mxCell id="YKDy_OSkBFgjNlzkAKXw-5" value="To another workspace" style="ellipse;whiteSpace=wrap;html=1;" parent="1" vertex="1">
          <mxGeometry x="630" y="720" width="140" height="70" as="geometry" />
        </mxCell>
        <mxCell id="YKDy_OSkBFgjNlzkAKXw-6" value="Includes" style="endArrow=open;endSize=12;dashed=1;html=1;rounded=0;" parent="1" source="YKDy_OSkBFgjNlzkAKXw-4" target="YKDy_OSkBFgjNlzkAKXw-5" edge="1">
          <mxGeometry width="160" relative="1" as="geometry">
            <mxPoint x="445.75746637337534" y="564.9245376593749" as="sourcePoint" />
            <mxPoint x="654.2370789242214" y="603.0129379214759" as="targetPoint" />
          </mxGeometry>
        </mxCell>
        <mxCell id="uZaBpIL5f48voo7q-aNZ-1" style="edgeStyle=none;rounded=0;orthogonalLoop=1;jettySize=auto;html=1;endArrow=none;endFill=0;" parent="1" source="YKDy_OSkBFgjNlzkAKXw-1" target="YKDy_OSkBFgjNlzkAKXw-4" edge="1">
          <mxGeometry relative="1" as="geometry">
            <mxPoint x="110" y="830.4334353189495" as="sourcePoint" />
            <mxPoint x="317.87698905413254" y="884.9448147017745" as="targetPoint" />
          </mxGeometry>
        </mxCell>
        <mxCell id="uZaBpIL5f48voo7q-aNZ-2" value="Copy space&amp;nbsp;" style="ellipse;whiteSpace=wrap;html=1;" parent="1" vertex="1">
          <mxGeometry x="310" y="650" width="140" height="70" as="geometry" />
        </mxCell>
        <mxCell id="uZaBpIL5f48voo7q-aNZ-3" style="edgeStyle=none;rounded=0;orthogonalLoop=1;jettySize=auto;html=1;endArrow=none;endFill=0;" parent="1" source="YKDy_OSkBFgjNlzkAKXw-1" target="uZaBpIL5f48voo7q-aNZ-2" edge="1">
          <mxGeometry relative="1" as="geometry">
            <mxPoint x="90" y="980.0034353189494" as="sourcePoint" />
            <mxPoint x="297.87698905413254" y="1034.5148147017744" as="targetPoint" />
          </mxGeometry>
        </mxCell>
        <mxCell id="uZaBpIL5f48voo7q-aNZ-4" value="Space name must be unique inside workspace and not empty" style="ellipse;whiteSpace=wrap;html=1;" parent="1" vertex="1">
          <mxGeometry x="640" y="440" width="180" height="70" as="geometry" />
        </mxCell>
        <mxCell id="D5owvWTOHfXvlM4Ul75v-1" value="Extends" style="endArrow=open;endSize=12;dashed=1;html=1;rounded=0;" parent="1" source="uZaBpIL5f48voo7q-aNZ-4" target="YKDy_OSkBFgjNlzkAKXw-3" edge="1">
          <mxGeometry width="160" relative="1" as="geometry">
            <mxPoint x="608.2772667638224" y="906.7732321227229" as="sourcePoint" />
            <mxPoint x="424.96466310490723" y="979.4019417838372" as="targetPoint" />
          </mxGeometry>
        </mxCell>
        <mxCell id="D5owvWTOHfXvlM4Ul75v-2" value="Includes" style="endArrow=open;endSize=12;dashed=1;html=1;rounded=0;" parent="1" source="uZaBpIL5f48voo7q-aNZ-2" target="YKDy_OSkBFgjNlzkAKXw-5" edge="1">
          <mxGeometry width="160" relative="1" as="geometry">
            <mxPoint x="434.95159163512335" y="1009.7735750393463" as="sourcePoint" />
            <mxPoint x="580.0619674792194" y="1006.4773796320162" as="targetPoint" />
          </mxGeometry>
        </mxCell>
        <mxCell id="D5owvWTOHfXvlM4Ul75v-3" style="edgeStyle=none;rounded=0;orthogonalLoop=1;jettySize=auto;html=1;endArrow=none;endFill=0;" parent="1" source="YKDy_OSkBFgjNlzkAKXw-1" target="D5owvWTOHfXvlM4Ul75v-4" edge="1">
          <mxGeometry relative="1" as="geometry">
            <mxPoint x="-50" y="1155.0004054054054" as="sourcePoint" />
            <mxPoint x="70" y="928.5" as="targetPoint" />
          </mxGeometry>
        </mxCell>
        <mxCell id="D5owvWTOHfXvlM4Ul75v-4" value="Remove space from workspace" style="ellipse;whiteSpace=wrap;html=1;" parent="1" vertex="1">
          <mxGeometry x="300" y="890" width="140" height="70" as="geometry" />
        </mxCell>
        <mxCell id="D5owvWTOHfXvlM4Ul75v-5" value="Ask user if he wishes to delete space from workspace" style="ellipse;whiteSpace=wrap;html=1;" parent="1" vertex="1">
          <mxGeometry x="590" y="847" width="150" height="90" as="geometry" />
        </mxCell>
        <mxCell id="D5owvWTOHfXvlM4Ul75v-6" value="Extends" style="endArrow=open;endSize=12;dashed=1;html=1;rounded=0;" parent="1" source="D5owvWTOHfXvlM4Ul75v-5" target="D5owvWTOHfXvlM4Ul75v-4" edge="1">
          <mxGeometry width="160" relative="1" as="geometry">
            <mxPoint x="659.3772667638224" y="1246.773232122723" as="sourcePoint" />
            <mxPoint x="490.00110211545996" y="995.8226598103381" as="targetPoint" />
          </mxGeometry>
        </mxCell>
        <mxCell id="Lk1upGjPeeqZN8bfLaN_-1" style="edgeStyle=none;rounded=0;orthogonalLoop=1;jettySize=auto;html=1;endArrow=none;endFill=0;" parent="1" source="YKDy_OSkBFgjNlzkAKXw-1" target="Lk1upGjPeeqZN8bfLaN_-2" edge="1">
          <mxGeometry relative="1" as="geometry">
            <mxPoint x="50" y="651.3631523188897" as="sourcePoint" />
            <mxPoint x="170" y="433" as="targetPoint" />
          </mxGeometry>
        </mxCell>
        <mxCell id="Lk1upGjPeeqZN8bfLaN_-2" value="View space" style="ellipse;whiteSpace=wrap;html=1;" parent="1" vertex="1">
          <mxGeometry x="300" y="300" width="140" height="70" as="geometry" />
        </mxCell>
        <mxCell id="Lk1upGjPeeqZN8bfLaN_-7" style="edgeStyle=none;rounded=0;orthogonalLoop=1;jettySize=auto;html=1;endArrow=none;endFill=0;" parent="1" source="YKDy_OSkBFgjNlzkAKXw-1" target="Lk1upGjPeeqZN8bfLaN_-8" edge="1">
          <mxGeometry relative="1" as="geometry">
            <mxPoint x="110" y="838.6354888942146" as="sourcePoint" />
            <mxPoint x="210" y="1050" as="targetPoint" />
          </mxGeometry>
        </mxCell>
        <mxCell id="Lk1upGjPeeqZN8bfLaN_-8" value="Rename space" style="ellipse;whiteSpace=wrap;html=1;" parent="1" vertex="1">
          <mxGeometry x="300" y="430" width="140" height="70" as="geometry" />
        </mxCell>
        <mxCell id="Lk1upGjPeeqZN8bfLaN_-9" value="Extends" style="endArrow=open;endSize=12;dashed=1;html=1;rounded=0;" parent="1" source="uZaBpIL5f48voo7q-aNZ-4" target="Lk1upGjPeeqZN8bfLaN_-8" edge="1">
          <mxGeometry width="160" relative="1" as="geometry">
            <mxPoint x="604.1115561329439" y="576.8235549537317" as="sourcePoint" />
            <mxPoint x="446.0345073952658" y="605.3870349063498" as="targetPoint" />
          </mxGeometry>
        </mxCell>
        <mxCell id="k47qOBup-xhAWOZxqjmQ-2" value="To the same workspace" style="ellipse;whiteSpace=wrap;html=1;" parent="1" vertex="1">
          <mxGeometry x="630" y="587" width="140" height="70" as="geometry" />
        </mxCell>
        <mxCell id="k47qOBup-xhAWOZxqjmQ-3" value="Includes" style="endArrow=open;endSize=12;dashed=1;html=1;rounded=0;" parent="1" source="uZaBpIL5f48voo7q-aNZ-2" target="k47qOBup-xhAWOZxqjmQ-2" edge="1">
          <mxGeometry width="160" relative="1" as="geometry">
            <mxPoint x="541.6515916351234" y="962.7735750393463" as="sourcePoint" />
            <mxPoint x="620" y="660" as="targetPoint" />
          </mxGeometry>
        </mxCell>
      </root>
    </mxGraphModel>
  </diagram>
  <diagram id="X-znudVIoGB6By0-HgWC" name="note">
    <mxGraphModel dx="1374" dy="782" grid="1" gridSize="10" guides="1" tooltips="1" connect="1" arrows="1" fold="1" page="1" pageScale="1" pageWidth="850" pageHeight="1100" math="0" shadow="0">
      <root>
        <mxCell id="0" />
        <mxCell id="1" parent="0" />
        <mxCell id="xYi1b82wHLdpw1ZfkKEx-1" value="User" style="shape=umlActor;verticalLabelPosition=bottom;verticalAlign=top;html=1;outlineConnect=0;" parent="1" vertex="1">
          <mxGeometry x="70" y="470" width="30" height="60" as="geometry" />
        </mxCell>
        <mxCell id="xtZrTlfZtFlkNqyToe1L-6" style="rounded=0;orthogonalLoop=1;jettySize=auto;html=1;endArrow=none;endFill=0;" parent="1" source="xYi1b82wHLdpw1ZfkKEx-1" target="xtZrTlfZtFlkNqyToe1L-7" edge="1">
          <mxGeometry relative="1" as="geometry">
            <mxPoint x="310" y="540" as="targetPoint" />
            <mxPoint x="120" y="511.2598082402583" as="sourcePoint" />
          </mxGeometry>
        </mxCell>
        <mxCell id="xtZrTlfZtFlkNqyToe1L-7" value="Add note to space" style="ellipse;whiteSpace=wrap;html=1;" parent="1" vertex="1">
          <mxGeometry x="300" y="200.50000000000006" width="150" height="70" as="geometry" />
        </mxCell>
        <mxCell id="xtZrTlfZtFlkNqyToe1L-11" style="rounded=0;orthogonalLoop=1;jettySize=auto;html=1;endArrow=none;endFill=0;" parent="1" source="xYi1b82wHLdpw1ZfkKEx-1" target="xtZrTlfZtFlkNqyToe1L-12" edge="1">
          <mxGeometry relative="1" as="geometry">
            <mxPoint x="310" y="650" as="targetPoint" />
            <mxPoint x="110" y="513.3585138492972" as="sourcePoint" />
          </mxGeometry>
        </mxCell>
        <mxCell id="xtZrTlfZtFlkNqyToe1L-12" value="Edit note&amp;nbsp;" style="ellipse;whiteSpace=wrap;html=1;" parent="1" vertex="1">
          <mxGeometry x="300" y="310.50000000000006" width="150" height="70" as="geometry" />
        </mxCell>
        <mxCell id="xtZrTlfZtFlkNqyToe1L-13" style="rounded=0;orthogonalLoop=1;jettySize=auto;html=1;endArrow=none;endFill=0;" parent="1" source="xYi1b82wHLdpw1ZfkKEx-1" target="xtZrTlfZtFlkNqyToe1L-14" edge="1">
          <mxGeometry relative="1" as="geometry">
            <mxPoint x="210" y="740" as="targetPoint" />
            <mxPoint x="110" y="518.75" as="sourcePoint" />
          </mxGeometry>
        </mxCell>
        <mxCell id="xtZrTlfZtFlkNqyToe1L-14" value="Remove note from space" style="ellipse;whiteSpace=wrap;html=1;" parent="1" vertex="1">
          <mxGeometry x="300" y="420.50000000000006" width="150" height="70" as="geometry" />
        </mxCell>
        <mxCell id="xtZrTlfZtFlkNqyToe1L-15" value="Ask user if he wants to delete note from the space" style="ellipse;whiteSpace=wrap;html=1;" parent="1" vertex="1">
          <mxGeometry x="610" y="400.5" width="190" height="90" as="geometry" />
        </mxCell>
        <mxCell id="NTFzoJKbbxrM8VDmk0m9-2" style="rounded=0;orthogonalLoop=1;jettySize=auto;html=1;endArrow=none;endFill=0;" parent="1" source="xYi1b82wHLdpw1ZfkKEx-1" target="E5o2C9A7h9tZMJ_CmMU2-1" edge="1">
          <mxGeometry relative="1" as="geometry">
            <mxPoint x="230" y="750" as="targetPoint" />
            <mxPoint x="110" y="522.7093616230698" as="sourcePoint" />
          </mxGeometry>
        </mxCell>
        <mxCell id="NTFzoJKbbxrM8VDmk0m9-3" value="Copy note" style="ellipse;whiteSpace=wrap;html=1;" parent="1" vertex="1">
          <mxGeometry x="280" y="760" width="170" height="70" as="geometry" />
        </mxCell>
        <mxCell id="E5o2C9A7h9tZMJ_CmMU2-1" value="Move note" style="ellipse;whiteSpace=wrap;html=1;" parent="1" vertex="1">
          <mxGeometry x="300" y="530.5" width="170" height="70" as="geometry" />
        </mxCell>
        <mxCell id="E5o2C9A7h9tZMJ_CmMU2-2" style="rounded=0;orthogonalLoop=1;jettySize=auto;html=1;endArrow=none;endFill=0;" parent="1" source="xYi1b82wHLdpw1ZfkKEx-1" target="NTFzoJKbbxrM8VDmk0m9-3" edge="1">
          <mxGeometry relative="1" as="geometry">
            <mxPoint x="334.10926765944123" y="762.3981158627437" as="targetPoint" />
            <mxPoint x="110" y="525.8336469974615" as="sourcePoint" />
          </mxGeometry>
        </mxCell>
        <mxCell id="E5o2C9A7h9tZMJ_CmMU2-3" style="rounded=0;orthogonalLoop=1;jettySize=auto;html=1;endArrow=none;endFill=0;" parent="1" source="xYi1b82wHLdpw1ZfkKEx-1" target="E5o2C9A7h9tZMJ_CmMU2-4" edge="1">
          <mxGeometry relative="1" as="geometry">
            <mxPoint x="270" y="409.5" as="targetPoint" />
            <mxPoint x="60" y="257.1898404618994" as="sourcePoint" />
          </mxGeometry>
        </mxCell>
        <mxCell id="E5o2C9A7h9tZMJ_CmMU2-4" value="View note" style="ellipse;whiteSpace=wrap;html=1;" parent="1" vertex="1">
          <mxGeometry x="300" y="640.5" width="150" height="70" as="geometry" />
        </mxCell>
        <mxCell id="A1p9AVCQ5b-hwzCnjKjM-1" value="Includes" style="endArrow=open;endSize=12;dashed=1;html=1;rounded=0;" parent="1" source="NTFzoJKbbxrM8VDmk0m9-3" target="A1p9AVCQ5b-hwzCnjKjM-2" edge="1">
          <mxGeometry width="160" relative="1" as="geometry">
            <mxPoint x="529.9954608417552" y="757.2099943100184" as="sourcePoint" />
            <mxPoint x="610" y="710" as="targetPoint" />
          </mxGeometry>
        </mxCell>
        <mxCell id="A1p9AVCQ5b-hwzCnjKjM-2" value="To another space" style="ellipse;whiteSpace=wrap;html=1;" parent="1" vertex="1">
          <mxGeometry x="640" y="620" width="170" height="70" as="geometry" />
        </mxCell>
        <mxCell id="A1p9AVCQ5b-hwzCnjKjM-3" value="Includes" style="endArrow=open;endSize=12;dashed=1;html=1;rounded=0;" parent="1" source="NTFzoJKbbxrM8VDmk0m9-3" target="A1p9AVCQ5b-hwzCnjKjM-4" edge="1">
          <mxGeometry width="160" relative="1" as="geometry">
            <mxPoint x="454.8349896552711" y="765.0471458127797" as="sourcePoint" />
            <mxPoint x="620" y="810" as="targetPoint" />
          </mxGeometry>
        </mxCell>
        <mxCell id="A1p9AVCQ5b-hwzCnjKjM-4" value="To the same space" style="ellipse;whiteSpace=wrap;html=1;" parent="1" vertex="1">
          <mxGeometry x="640" y="770" width="170" height="70" as="geometry" />
        </mxCell>
        <mxCell id="A1p9AVCQ5b-hwzCnjKjM-6" value="Includes" style="endArrow=open;endSize=12;dashed=1;html=1;rounded=0;" parent="1" source="E5o2C9A7h9tZMJ_CmMU2-1" target="A1p9AVCQ5b-hwzCnjKjM-2" edge="1">
          <mxGeometry width="160" relative="1" as="geometry">
            <mxPoint x="475.07925173303624" y="786.5142475908481" as="sourcePoint" />
            <mxPoint x="685.0501796878837" y="755.1344327490986" as="targetPoint" />
          </mxGeometry>
        </mxCell>
        <mxCell id="FIP_FHqICdHHgI_Y6Gz3-1" value="Note title must be unique inside space and not empty" style="ellipse;whiteSpace=wrap;html=1;" parent="1" vertex="1">
          <mxGeometry x="630" y="190.5" width="190" height="90" as="geometry" />
        </mxCell>
        <mxCell id="FIP_FHqICdHHgI_Y6Gz3-2" value="Extends" style="endArrow=open;endSize=12;dashed=1;html=1;rounded=0;" parent="1" source="FIP_FHqICdHHgI_Y6Gz3-1" target="xtZrTlfZtFlkNqyToe1L-7" edge="1">
          <mxGeometry width="160" relative="1" as="geometry">
            <mxPoint x="611.7600000000001" y="360" as="sourcePoint" />
            <mxPoint x="440.0002319637548" y="263.43138880621336" as="targetPoint" />
          </mxGeometry>
        </mxCell>
        <mxCell id="FIP_FHqICdHHgI_Y6Gz3-3" value="Extends" style="endArrow=open;endSize=12;dashed=1;html=1;rounded=0;" parent="1" source="FIP_FHqICdHHgI_Y6Gz3-1" target="xtZrTlfZtFlkNqyToe1L-12" edge="1">
          <mxGeometry width="160" relative="1" as="geometry">
            <mxPoint x="635.3347958039913" y="230.5860861745782" as="sourcePoint" />
            <mxPoint x="459.4246384997764" y="241.17298613373384" as="targetPoint" />
          </mxGeometry>
        </mxCell>
        <mxCell id="X5uIfuxrIEOfH5Y5AG9B-1" value="Includes" style="endArrow=open;endSize=12;dashed=1;html=1;rounded=0;" parent="1" source="xtZrTlfZtFlkNqyToe1L-14" target="xtZrTlfZtFlkNqyToe1L-15" edge="1">
          <mxGeometry width="160" relative="1" as="geometry">
            <mxPoint x="459.9958811929383" y="474.03930641762344" as="sourcePoint" />
            <mxPoint x="656.557099135145" y="525.9688084700376" as="targetPoint" />
          </mxGeometry>
        </mxCell>
      </root>
    </mxGraphModel>
  </diagram>
</mxfile>
